<?xml version="1.0" encoding="UTF-8"?>
<svg id="_图层_1" data-name="图层 1" xmlns="http://www.w3.org/2000/svg" viewBox="0 0 289.33 24.75">
  <defs>
    <style>
      .cls-1 {
        fill: #e50036;
      }
    </style>
  </defs>
  <g>
    <g>
      <polygon class="cls-1" points="38.21 12.46 38.55 9.2 38.55 9.21 38.81 6.96 43.47 6.96 43.47 4.09 40.97 4.09 40.98 1.22 34.98 1.22 36.35 2.42 36.33 4.09 32.95 4.09 32.95 6.96 34.84 6.96 32.98 23.9 36.99 23.9 38.2 12.46 38.21 12.46"/>
      <path class="cls-1" d="M39.88,9.53l-.79,12.03-1.59,2.34h3.24c.67,0,1.26-.23,1.73-.62s.71-.89,.71-1.5l-.02-12.25h-3.27Z"/>
      <path class="cls-1" d="M58.81,7.72l-4.95,1.46,.4-3.13h4.55s-.01-3-.01-3h-7.51s-1.6,6.65-1.6,6.65l-5.47,1.1v13.08l14.54,.03v-1.78s-10.26-1.12-10.26-1.12v-7.27s1.36-.38,1.36-.38v5.84h3.98v-7.01s1.24-.35,1.24-.35v6.47s-.76,.92-.76,.92h2.59c.48,0,.9-.21,1.25-.63,.35-.42,.65-.97,.65-1.58V7.72Z"/>
      <polygon class="cls-1" points="44.18 9.67 48.76 8.72 50.89 0 45.09 0 45.93 1.05 44.18 9.67"/>
    </g>
    <g>
      <polygon class="cls-1" points="87.73 15.56 78.1 15.56 78.9 14.78 71.7 14.78 70.89 15.56 63.72 15.56 63.7 18.57 67.87 18.57 62.5 23.9 69.7 23.9 75.07 18.57 75.77 18.57 81.7 23.9 88.9 23.9 82.88 18.57 87.73 18.56 87.73 15.56"/>
      <polygon class="cls-1" points="87.72 5.36 87.71 2.36 83.44 2.36 84 0 78.19 0 79.04 1.05 78.7 2.36 71.54 2.36 72.09 0 66.29 0 67.14 1.05 66.8 2.36 63.71 2.36 63.71 5.36 72.71 5.36 72.72 6.56 64.32 6.56 64.3 9.56 72.7 9.56 72.71 10.76 63.11 10.76 63.12 13.76 88.33 13.76 88.33 10.76 78.72 10.76 78.71 9.56 87.11 9.56 87.11 6.56 78.73 6.56 78.72 5.36 87.72 5.36"/>
    </g>
    <g>
      <polygon class="cls-1" points="28.89 6.57 28.89 3.87 25.97 3.87 25.97 0 21.65 0 21.65 .94 21.65 3.87 20.86 3.9 21.21 1.86 17.56 1.84 18.01 2.57 17.23 7.19 20.28 7.19 20.41 6.57 21.65 6.57 21.65 9.18 16.62 9.18 16.57 12.54 29.27 12.54 29.27 9.18 25.96 9.17 25.97 6.57 28.89 6.57"/>
      <path class="cls-1" d="M27.71,13.88h-10.68v8.6c.01,.73,.67,1.42,1.41,1.42h10.51V15.1c-.01-.64-.59-1.21-1.24-1.21Zm-2.9,7.27h-3.63v-4.55s3.63,0,3.63,0v4.55Z"/>
      <path class="cls-1" d="M12.76,21.56H6.69s0,2.34,0,2.34H15.76l.09-17.45h-3.79v-1.94h3.86l.18-2.94H2.86s0,2.94,0,2.94h3.85s0,1.94,0,1.94H2.86V23.9s3.05,0,3.05,0v-4.42s7.62,.01,7.62,.01v-2.49s-7.61-.02-7.61-.02l.02-8.23h.7l-.29,6.25h2.34l.26-6.25h.66v6.25s3.15,0,3.15,0v6.55Zm-3.16-15.11h-.54v-1.94h.54s0,1.94,0,1.94Zm3.15,6.7h-.69v-4.39h.71v4.39Z"/>
      <polygon class="cls-1" points="7.63 15 5.44 15 5.18 13.15 7.37 13.15 7.63 15"/>
    </g>
  </g>
  <g>
    <polygon class="cls-1" points="280.19 5.58 274.63 11.51 269.15 5.58 260.51 5.58 270.64 14.98 270.65 21.81 278.7 21.81 278.71 14.98 288.84 5.58 280.19 5.58"/>
    <polygon class="cls-1" points="133.02 5.55 122.69 5.55 115.48 10.22 115.48 5.55 108.17 5.55 108.17 21.77 115.48 21.77 115.48 16.91 117.15 15.82 124.18 21.77 132.93 21.77 122.09 12.63 133.02 5.55"/>
    <path class="cls-1" d="M135.48,8.31v10.69c0,1.53,1.24,2.77,2.77,2.77h18.11c1.53,0,2.77-1.24,2.77-2.77V8.31c0-1.53-1.24-2.77-2.77-2.77h-18.11c-1.53,0-2.77,1.24-2.77,2.77Zm15.02,10.45h-6.48c-.9,0-1.63-.73-1.63-1.63v-6.9c0-.9,.73-1.63,1.63-1.63h6.48c.9,0,1.63,.73,1.63,1.63v6.9c0,.9-.73,1.63-1.63,1.63Z"/>
    <path class="cls-1" d="M161.97,8.31v10.69c0,1.53,1.24,2.77,2.77,2.77h18.11c1.53,0,2.77-1.24,2.77-2.77V8.31c0-1.53-1.24-2.77-2.77-2.77h-18.11c-1.53,0-2.77,1.24-2.77,2.77Zm15.02,10.45h-6.48c-.9,0-1.63-.73-1.63-1.63v-6.9c0-.9,.73-1.63,1.63-1.63h6.48c.9,0,1.63,.73,1.63,1.63v6.9c0,.9-.73,1.63-1.63,1.63Z"/>
    <path class="cls-1" d="M259.3,10.06v-.95c0-1.97-1.58-3.56-3.55-3.56h-28.06s0,0,0,0h-1.92v4.51s0,11.71,0,11.71h7.95s.02,0,.02,0l.02-13.19h2.92c1.08,0,1.95,.87,1.95,1.95v11.24s7.79,0,7.79,0h.04l-.02-13.19h3.15c.95,0,1.73,.77,1.73,1.73l.02,11.46h.02s4.2,0,4.2,0h3.75V10.06Z"/>
    <path class="cls-1" d="M188.42,18.7v3.06s20.87,0,20.87,0c1.89,0,3.42-1.53,3.42-3.42v-6.49s-16.14,0-16.14,0v-2.01c-.06-.82,.63-1.28,1.91-1.28h24.48s0-3.04,0-3.04h-31.54c-1.66,0-3,1.34-3,3v6.63s16.04-.09,16.04-.09v2.73c0,.48-.39,.87-.87,.87l-15.16,.02Z"/>
    <path class="cls-1" d="M215.95,11.87l.02,9.91h4.92c1.42,0,2.43-1,2.43-2.39v-7.52h-7.38Z"/>
  </g>
</svg>
