<svg width="78" height="78" viewBox="0 0 78 78" fill="none" xmlns="http://www.w3.org/2000/svg">
<path d="M30.8839 54.3981C30.6527 54.398 30.4244 54.346 30.216 54.2459C30.0075 54.1459 29.8242 54.0003 29.6794 53.82C29.5347 53.6396 29.4323 53.4291 29.3797 53.204C29.3271 52.9788 29.3258 52.7447 29.3757 52.519L32.1346 40.0458C32.1934 39.781 32.3208 39.5363 32.5041 39.3364C32.6874 39.1365 32.9201 38.9884 33.1788 38.9069C33.4375 38.8255 33.7131 38.8136 33.9779 38.8724C34.2427 38.9313 34.4873 39.0588 34.6871 39.2422L44.0936 47.8709C44.2937 48.0539 44.4421 48.2864 44.5239 48.5449C44.6056 48.8034 44.6178 49.0789 44.5593 49.3437C44.5008 49.6084 44.3736 49.8531 44.1905 50.0531C44.0073 50.2531 43.7748 50.4013 43.5162 50.4829L31.35 54.3265C31.1993 54.3743 31.042 54.3984 30.8839 54.3981ZM34.5721 43.3288L32.9725 50.5743L40.0405 48.3417L34.5721 43.3288ZM46.7551 46.6111C45.9312 46.612 45.1374 46.3019 44.5324 45.7427L36.7598 38.6191C36.1158 38.0272 35.7326 37.2042 35.694 36.3303C35.6555 35.4565 35.9647 34.603 36.5541 33.9566L59.6525 8.70032C59.9448 8.38057 60.2972 8.12161 60.6897 7.93826C61.0822 7.75492 61.5071 7.65078 61.9398 7.63182C62.3726 7.61286 62.8049 7.67944 63.212 7.82776C63.619 7.97608 63.9928 8.20322 64.3119 8.49618L72.0814 15.6228C72.7248 16.2143 73.1077 17.0366 73.1462 17.9097C73.1848 18.7828 72.8759 19.6356 72.2871 20.2815L49.1903 45.5393C48.8989 45.8594 48.5469 46.1185 48.1546 46.3016C47.7623 46.4847 47.3376 46.588 46.9051 46.6057C46.8564 46.6057 46.8061 46.6103 46.7573 46.6103L46.7551 46.6111ZM62.224 10.773L61.9315 10.7859L38.8347 36.0392C38.7974 36.0808 38.7779 36.1354 38.7805 36.1913C38.7831 36.2471 38.8074 36.2997 38.8484 36.3378L46.6179 43.4636C46.6592 43.4981 46.7112 43.517 46.765 43.517L70.0096 18.2005C70.0472 18.1591 70.0669 18.1046 70.0643 18.0487C70.0617 17.9929 70.0371 17.9403 69.9959 17.9026L62.224 10.773Z" fill="black"/>
<path d="M16.8202 70.3264C14.6417 70.3264 12.7831 69.6988 11.2833 68.4496C9.3889 66.8758 8.31259 64.8611 8.08408 62.4632C7.89136 60.4408 8.29431 58.1671 9.31654 55.5118C11.1081 50.8584 14.6143 45.614 18.0047 40.5425C24.1647 31.3257 30.5342 21.7996 25.9266 17.0267C23.6483 14.6654 19.9852 14.2792 15.034 15.8773C11.0731 17.1562 7.85937 19.2494 7.82738 19.2699C7.64733 19.3879 7.4458 19.4692 7.23432 19.5093C7.02284 19.5493 6.80554 19.5473 6.59483 19.5034C6.38412 19.4595 6.18413 19.3745 6.00626 19.2533C5.8284 19.132 5.67616 18.977 5.55822 18.7969C5.44028 18.6169 5.35897 18.4153 5.31891 18.2039C5.27886 17.9924 5.28085 17.7751 5.32478 17.5644C5.3687 17.3537 5.4537 17.1537 5.57491 16.9758C5.69613 16.7979 5.85119 16.6457 6.03125 16.5278C6.1775 16.4318 9.65246 14.1664 14.0293 12.7573C20.1809 10.7707 25.11 11.4623 28.2849 14.7491C29.8845 16.4089 30.7315 18.4648 30.7985 20.8597C30.8519 22.8714 30.3651 25.1146 29.3101 27.7151C27.4485 32.309 24.0337 37.4164 20.7317 42.3561C17.4403 47.2791 14.0377 52.3697 12.3771 56.6825C10.2032 62.3291 11.7678 64.5876 13.3795 65.9252C16.3525 68.4023 21.6404 66.3206 25.5526 64.1367C30.1229 61.5834 33.8957 58.292 33.9315 58.2593C34.2579 57.9727 34.6849 57.8276 35.1184 57.8558C35.5518 57.884 35.9563 58.0833 36.2429 58.4097C36.5295 58.7362 36.6746 59.1631 36.6464 59.5966C36.6182 60.0301 36.4189 60.4346 36.0925 60.7212C35.9279 60.8651 32.0211 64.2761 27.1476 66.997C24.215 68.6339 21.533 69.679 19.177 70.104C18.3996 70.2481 17.6109 70.3225 16.8202 70.3264Z" fill="black"/>
</svg>
