<svg width="64" height="72" viewBox="0 0 64 72" fill="none" xmlns="http://www.w3.org/2000/svg">
<path d="M31.9241 71.2164C31.6391 71.2183 31.3586 71.1473 31.1107 71.0106L0.819165 53.9993C0.570904 53.8599 0.364923 53.6592 0.222082 53.4174C0.0792415 53.1756 0.00461205 52.9015 0.00575013 52.6226V18.6C0.00461205 18.3212 0.0792415 18.047 0.222082 17.8052C0.364923 17.5635 0.570904 17.3627 0.819165 17.2233L31.1107 0.212007C31.358 0.0731186 31.6386 0 31.9241 0C32.2097 0 32.4902 0.0731186 32.7375 0.212007L63.0291 17.2233C63.2773 17.3627 63.4833 17.5635 63.6262 17.8052C63.769 18.047 63.8436 18.3212 63.8425 18.6V52.6226C63.8436 52.9015 63.769 53.1756 63.6262 53.4174C63.4833 53.6592 63.2773 53.8599 63.0291 53.9993L32.7375 71.0106C32.4896 71.1473 32.2091 71.2183 31.9241 71.2164ZM3.25941 51.7048L31.9241 67.8141L60.5888 51.7048V19.5178L31.9241 3.40855L3.25941 19.5178V51.7048Z" fill="black"/>
<path d="M31.9239 51.6258C31.6397 51.6216 31.3607 51.551 31.1104 51.42L18.2585 44.2041C18.0102 44.0647 17.8043 43.8639 17.6614 43.6222C17.5186 43.3804 17.4439 43.1062 17.4451 42.8274V28.3955C17.4439 28.1166 17.5186 27.8424 17.6614 27.6007C17.8043 27.3589 18.0102 27.1582 18.2585 27.0187L31.1104 19.787C31.3577 19.6481 31.6383 19.575 31.9239 19.575C32.2094 19.575 32.49 19.6481 32.7373 19.787L45.5892 27.0029C45.8375 27.1423 46.0434 27.3431 46.1863 27.5848C46.3291 27.8266 46.4038 28.1008 46.4026 28.3796V42.8115C46.4038 43.0904 46.3291 43.3646 46.1863 43.6063C46.0434 43.8481 45.8375 44.0489 45.5892 44.1883L32.7373 51.4359C32.4856 51.5614 32.2067 51.6265 31.9239 51.6258ZM20.6987 41.9412L31.9239 48.271L43.149 41.9412V29.2816L31.9239 22.9519L20.6987 29.2816V41.9412Z" fill="black"/>
<path d="M44.7759 29.9779C44.4157 29.9803 44.0649 29.8664 43.7784 29.654C43.4919 29.4416 43.286 29.1427 43.1929 28.8042C43.0999 28.4657 43.125 28.1068 43.2642 27.7836C43.4035 27.4605 43.6491 27.1915 43.9625 27.0187L61.4021 17.2234C61.7775 17.0135 62.2232 16.9573 62.6411 17.0671C63.0591 17.1769 63.4151 17.4438 63.6308 17.8089C63.8466 18.174 63.9044 18.6076 63.7915 19.0141C63.6786 19.4207 63.4043 19.767 63.0289 19.9768L45.5893 29.7722C45.3414 29.9089 45.0609 29.9798 44.7759 29.9779ZM19.072 29.9779C18.787 29.9798 18.5066 29.9089 18.2586 29.7722L0.819021 19.9768C0.443649 19.767 0.169351 19.4207 0.0564675 19.0141C-0.0564155 18.6076 0.00136404 18.174 0.217095 17.8089C0.432826 17.4438 0.788836 17.1769 1.20681 17.0671C1.62478 16.9573 2.07048 17.0135 2.44585 17.2234L19.8854 27.0187C20.1988 27.1915 20.4444 27.4605 20.5837 27.7836C20.723 28.1068 20.7481 28.4657 20.655 28.8042C20.562 29.1427 20.3561 29.4416 20.0696 29.654C19.7831 29.8664 19.4322 29.9803 19.072 29.9779ZM19.072 44.4098C18.8181 44.408 18.5681 44.3483 18.3421 44.2357C18.1161 44.123 17.9204 43.9604 17.7706 43.761C17.6432 43.5938 17.5511 43.4038 17.4993 43.2019C17.4476 43 17.4373 42.7901 17.469 42.5844C17.5007 42.3786 17.5739 42.1809 17.6842 42.0027C17.7946 41.8244 17.94 41.6691 18.1122 41.5456L30.9641 32.3199C31.3102 32.0747 31.7416 31.9721 32.165 32.0343C32.5883 32.0966 32.9693 32.3186 33.2254 32.6522C33.3536 32.8185 33.4469 33.0077 33.4999 33.209C33.5529 33.4103 33.5647 33.6198 33.5344 33.8255C33.5042 34.0312 33.4327 34.2291 33.3238 34.4079C33.215 34.5868 33.071 34.743 32.9001 34.8677L20.0156 44.0933C19.7429 44.2924 19.4129 44.4031 19.072 44.4098ZM31.924 71.2164C31.7103 71.2164 31.4988 71.1755 31.3014 71.096C31.104 71.0165 30.9247 70.8999 30.7736 70.7529C30.6226 70.606 30.5027 70.4316 30.421 70.2396C30.3392 70.0476 30.2971 69.8418 30.2971 69.634V50.0433C30.2971 49.6236 30.4685 49.2211 30.7736 48.9243C31.0787 48.6276 31.4925 48.4609 31.924 48.4609C32.3554 48.4609 32.7692 48.6276 33.0743 48.9243C33.3794 49.2211 33.5508 49.6236 33.5508 50.0433V69.634C33.5508 69.8418 33.5087 70.0476 33.427 70.2396C33.3452 70.4316 33.2254 70.606 33.0743 70.7529C32.9232 70.8999 32.7439 71.0165 32.5465 71.096C32.3492 71.1755 32.1376 71.2164 31.924 71.2164Z" fill="black"/>
<path d="M44.7759 44.4098C44.4239 44.4098 44.0814 44.2987 43.7998 44.0933L30.9641 34.8677C30.7569 34.7203 30.5884 34.5274 30.4725 34.3046C30.3565 34.0819 30.2965 33.8356 30.2971 33.5859V21.1795C30.2971 20.7598 30.4685 20.3573 30.7736 20.0605C31.0787 19.7638 31.4925 19.597 31.924 19.597C32.3554 19.597 32.7692 19.7638 33.0743 20.0605C33.3794 20.3573 33.5508 20.7598 33.5508 21.1795V32.7946L45.7357 41.5456C45.9079 41.6691 46.0533 41.8244 46.1637 42.0027C46.274 42.1809 46.3472 42.3786 46.3789 42.5844C46.4107 42.7901 46.4004 43 46.3486 43.2019C46.2969 43.4038 46.2047 43.5938 46.0774 43.761C45.9275 43.9604 45.7318 44.123 45.5058 44.2357C45.2798 44.3483 45.0298 44.408 44.7759 44.4098Z" fill="black"/>
</svg>
