<svg width="70" height="70" viewBox="0 0 70 70" fill="none" xmlns="http://www.w3.org/2000/svg">
<path d="M55.8131 13.3935C59.6848 13.3935 62.8348 16.5435 62.8348 20.4152C62.8348 24.2869 59.6848 27.4369 55.8131 27.4369C51.9414 27.4369 48.7914 24.2869 48.7914 20.4152C48.7914 16.5435 51.9414 13.3935 55.8131 13.3935ZM55.8131 9.1935C49.6157 9.1935 44.5914 14.2177 44.5914 20.4152C44.5914 26.6126 49.6157 31.6369 55.8131 31.6369C62.0106 31.6369 67.0348 26.6126 67.0348 20.4152C67.0348 14.2177 62.0106 9.1935 55.8131 9.1935ZM34.9174 48.6066C38.7891 48.6066 41.9391 51.7566 41.9391 55.6283C41.9391 59.5 38.7891 62.65 34.9174 62.65C31.0457 62.65 27.8958 59.5 27.8958 55.6283C27.8958 51.7566 31.0457 48.6066 34.9174 48.6066ZM34.9174 44.4066C28.72 44.4066 23.6957 49.4309 23.6957 55.6283C23.6957 61.8258 28.72 66.85 34.9174 66.85C41.1149 66.85 46.1391 61.8258 46.1391 55.6283C46.1391 49.4309 41.1149 44.4066 34.9174 44.4066ZM14.0217 13.0064C17.8934 13.0064 21.0434 16.1564 21.0434 20.0281C21.0434 23.8998 17.8934 27.0498 14.0217 27.0498C10.15 27.0498 7.00005 23.9001 7.00005 20.0284C7.00005 16.1567 10.15 13.0064 14.0217 13.0064ZM14.0217 8.8064C7.8243 8.8064 2.80005 13.8306 2.80005 20.0284C2.80005 26.2262 7.8243 31.2501 14.0217 31.2501C20.2192 31.2501 25.2434 26.2259 25.2434 20.0284C25.2434 13.831 20.2195 8.8064 14.0217 8.8064Z" fill="black"/>
<path d="M34.9174 8.75005C40.0183 8.75005 44.8567 10.3674 48.9097 13.4274L50.0367 14.2755H52.2974L53.0828 13.9427C53.9466 13.5774 54.8753 13.3905 55.8131 13.3932C59.6848 13.3932 62.8348 16.5432 62.8348 20.4149C62.8337 21.5398 62.5627 22.6481 62.0447 23.6468C61.5267 24.6454 60.7767 25.5052 59.8577 26.1542L57.8641 27.5608L58.0986 29.9895C58.162 30.6655 58.193 31.3443 58.1914 32.0233C58.1914 41.2301 52.7524 49.5863 44.3349 53.3117L42.1883 54.2616L41.8726 56.5877C41.4036 60.0436 38.4136 62.6497 34.9171 62.6497C31.4209 62.6497 28.4305 60.0436 27.9615 56.5877L27.6458 54.2616L25.4993 53.3117C17.0818 49.5863 11.6428 41.2304 11.6428 32.0233C11.6428 31.2148 11.6834 30.42 11.7628 29.6605L12.0211 27.201L9.9957 25.7821C9.07111 25.134 8.31617 24.2728 7.79475 23.2714C7.27332 22.2699 7.00074 21.1575 7.00005 20.0285C7.00005 16.1568 10.15 13.0067 14.0217 13.0067C15.0479 13.0067 16.0332 13.222 16.9495 13.6469L19.1968 14.6882L21.1957 13.2255C25.1972 10.2977 29.9422 8.75005 34.9174 8.75005ZM34.9174 4.55005C28.8614 4.55005 23.2586 6.5118 18.7156 9.83575C17.2446 9.15501 15.6426 8.80371 14.0217 8.8064C7.8229 8.8064 2.80005 13.8292 2.80005 20.0285C2.80005 23.8323 4.69215 27.1951 7.58665 29.2226C7.4902 30.1533 7.44242 31.0883 7.4435 32.024C7.4435 43.238 14.1649 52.8886 23.8 57.153C24.5431 62.6284 29.2369 66.8501 34.9174 66.8501C40.598 66.8501 45.2918 62.6284 46.0348 57.153C55.67 52.8886 62.3914 43.238 62.3914 32.024C62.3914 31.2036 62.3564 30.3871 62.279 29.5863C65.1581 27.5549 67.0348 24.2075 67.0348 20.4156C67.0348 14.2163 62.012 9.19385 55.8131 9.19385C54.2654 9.19385 52.787 9.50745 51.4444 10.0762H51.4406C46.8433 6.6049 41.1166 4.55005 34.9174 4.55005Z" fill="black"/>
</svg>
