<svg width="67" height="67" viewBox="0 0 67 67" fill="none" xmlns="http://www.w3.org/2000/svg">
<g clip-path="url(#clip0_64_633)">
<path d="M37.9743 67H13.8376C9.67612 67 6.34692 63.6708 6.34692 59.5094V7.90686C6.34692 3.74533 9.67612 0.416138 13.8376 0.416138H52.9556C57.1171 0.416138 60.4463 3.74533 60.4463 7.90686V31.2112C60.4463 32.4596 59.614 33.2919 58.3655 33.2919C57.1171 33.2919 56.2848 32.4596 56.2848 31.2112V7.90686C56.2848 6.24226 54.6202 4.57766 52.9556 4.57766H13.8376C12.173 4.57766 10.5084 6.24219 10.5084 7.90686V59.5093C10.5084 61.174 12.173 62.8385 13.8376 62.8385H37.9743C39.2227 62.8385 40.0549 63.6708 40.0549 64.9192C40.0549 66.1676 39.2227 67 37.9743 67Z" fill="#090909"/>
<path d="M18.8314 17.4782C18.8314 16.2298 20.0798 14.9813 21.3283 14.9813H45.465C46.7134 14.9813 47.9619 16.2297 47.9619 17.4782C47.9619 18.7266 46.7134 19.9751 45.465 19.9751H21.3283C19.6638 20.3912 18.8314 19.1428 18.8314 17.4782ZM18.8314 31.2112C18.8314 29.9627 20.0798 28.7142 21.3283 28.7142H42.1358C43.3842 28.7142 44.6327 29.9626 44.6327 31.2112C44.6327 32.4597 43.3842 33.708 42.1358 33.708H21.3283C19.6638 33.708 18.8314 32.4596 18.8314 31.2112ZM18.8314 44.5279C18.8314 43.2795 20.0798 42.031 21.3283 42.031H29.2351C30.4836 42.031 31.7321 43.2794 31.7321 44.5279C31.7321 45.7765 30.4837 47.0248 29.2351 47.0248H21.3283C19.6638 47.0248 18.8314 45.7764 18.8314 44.5279ZM49.2103 62.4223C42.1358 62.4223 35.8935 56.5962 35.8935 49.1055C35.8935 41.6148 41.7196 35.7887 49.2103 35.7887C56.7009 35.7887 62.5271 41.6149 62.5271 49.1055C62.5271 56.5962 56.2849 62.4223 49.2103 62.4223ZM49.2103 40.3664C44.2165 40.3664 40.055 44.5279 40.055 49.5217C40.055 54.5155 44.2165 58.677 49.2103 58.677C54.2041 58.677 58.3656 54.5155 58.3656 49.5217C57.9495 44.5279 53.788 40.3664 49.2103 40.3664Z" fill="#090909"/>
<path d="M64.6079 67C64.1917 67 63.3594 67 62.9433 66.5839L55.0364 58.6771C54.2042 57.8448 54.2042 56.5963 55.0364 55.764C55.8687 54.9317 57.1172 54.9317 57.9495 55.764L65.8563 63.6708C66.6885 64.5031 66.6885 65.7516 65.8563 66.5839C65.8563 67 65.4401 67 64.6079 67Z" fill="#090909"/>
</g>
<defs>
<clipPath id="clip0_64_633">
<rect width="67" height="67" fill="white"/>
</clipPath>
</defs>
</svg>
