<svg width="74" height="70" viewBox="0 0 74 70" fill="none" xmlns="http://www.w3.org/2000/svg">
<path d="M23.6564 22.8155H30.8879C32.9542 22.8155 34.5036 21.2825 34.5036 19.2381V12.0831C34.5036 10.0387 32.9542 8.50574 30.8879 8.50574H23.6564C21.5904 8.50574 20.0406 10.0387 20.0406 12.0831V19.2378C20.0406 21.2821 21.7624 22.8155 23.6564 22.8155ZM22.4511 12.0831C22.4511 11.4016 22.9676 10.8906 23.6564 10.8906H30.8879C31.5766 10.8906 32.0931 11.4016 32.0931 12.0831V19.2378C32.0931 19.9192 31.5766 20.4302 30.8879 20.4302H23.6564C22.9676 20.4302 22.4511 19.9192 22.4511 19.2378V12.0831ZM22.6234 30.6516H24.3455L21.2459 25.5409L18.1466 30.6516H20.0406C20.9017 38.9991 28.1332 45.6425 36.7425 45.6425V43.2579C29.6826 43.0875 23.4844 37.6359 22.6234 30.6516ZM36.9145 12.0831V14.468C44.3183 14.468 50.3449 20.09 51.2056 27.0743H49.4838L52.5831 32.185L55.6827 27.0743H53.7887C52.9273 18.7268 45.6958 12.0831 36.9145 12.0831ZM51.0336 34.7403H42.4246C40.8748 34.7403 39.4976 36.1029 39.4976 37.6359V46.1538C39.4976 47.6872 40.8751 49.0497 42.4246 49.0497H51.0336C52.5831 49.0497 53.9606 47.6868 53.9606 46.1538V37.6359C53.7883 36.1025 52.5831 34.7403 51.0336 34.7403Z" fill="#040000"/>
<path d="M63.6029 1.69153H10.2263C5.57721 1.69153 1.78918 5.43933 1.78918 10.039V47.517C1.78918 52.1167 5.57721 55.8649 10.2263 55.8649H63.6029C68.252 55.8649 72.04 52.1167 72.04 47.517V10.0387C72.212 5.43933 68.4239 1.69153 63.6029 1.69153ZM68.5212 48.216C68.5212 50.3366 66.7351 51.927 64.7703 51.927H9.40239C7.25933 51.927 5.65186 50.1599 5.65186 48.216V9.33973C5.65186 7.21908 7.43798 5.62868 9.40239 5.62868H64.7707C66.9144 5.62868 68.5216 7.39583 68.5216 9.33973V48.216H68.5212ZM61.3647 63.3594H47.934V61.9965C47.934 60.8044 47.0733 59.9522 45.868 59.9522H26.5837C25.3784 59.9522 24.5174 60.8044 24.5174 61.9965V63.3594H11.2593C9.88173 63.3594 8.84876 64.3818 8.84876 65.7443C8.84876 67.1076 9.88173 68.1289 11.2593 68.1289H61.3647C62.7422 68.1289 63.7748 67.1072 63.7748 65.7443C63.7748 64.3818 62.7419 63.3594 61.3647 63.3594Z" fill="#040000"/>
</svg>
