<svg width="103" height="68" viewBox="0 0 103 68" fill="none" xmlns="http://www.w3.org/2000/svg">
<path d="M58.0962 17.9152C59.6616 16.8715 61.9229 17.2194 62.9665 18.9588C64.0101 20.5243 63.6623 22.7855 61.9229 23.8292L42.4415 36.8747C41.2239 37.5705 39.8324 37.5705 38.6148 36.8747L19.1335 23.8292C17.568 22.7855 17.0462 20.5243 18.0898 18.9588C19.1335 17.3934 21.3947 16.8715 22.9602 17.9152L40.5282 29.7432L58.0962 17.9152Z" fill="black"/>
<path d="M73.9247 20.8729V12.1759C73.9247 9.21887 71.6635 6.95764 68.7065 6.95764H12.1758C9.21885 6.95764 6.95762 9.21887 6.95762 12.1759V55.6611C6.95762 58.6181 9.21885 60.8793 12.1758 60.8793H73.055C74.9684 60.8793 76.5338 62.4448 76.5338 64.3581C76.5338 66.2715 74.9684 67.837 73.055 67.837H12.1758C5.39216 67.837 0 62.4448 0 55.6611V12.1759C0 5.39217 5.39216 0 12.1758 0H68.7065C75.4902 0 80.8823 5.39217 80.8823 12.1759V20.8729C80.8823 22.7863 79.3169 24.3517 77.4035 24.3517C75.4902 24.3517 73.9247 22.7863 73.9247 20.8729Z" fill="black"/>
<path d="M83.6658 27.1354C85.0574 25.7439 87.1447 25.7439 88.5362 27.1354L101.582 40.181C102.973 41.5725 102.973 43.6598 101.582 45.0514L88.5362 58.0969C87.1447 59.4885 85.0574 59.4885 83.6658 58.0969C82.2743 56.7054 82.2743 54.6181 83.6658 53.2266L90.7974 46.095H73.0555C71.1421 46.095 69.5767 44.5295 69.5767 42.6162C69.5767 40.7028 71.1421 39.1374 73.0555 39.1374H90.7974L83.6658 32.0058V31.6579C82.2743 30.2664 82.4483 28.353 83.6658 26.9615V27.1354Z" fill="#ED141F"/>
</svg>
