<svg width="79" height="98" viewBox="0 0 79 98" fill="none" xmlns="http://www.w3.org/2000/svg">
<path d="M13.992 10.4411C28.112 -3.48038 50.95 -3.48038 65.0733 10.4411C68.4349 13.7477 71.0987 17.6825 72.9099 22.0168C74.7211 26.3511 75.6435 30.9984 75.6235 35.6885C75.6564 44.7613 72.1664 53.5 65.8744 60.0996L65.0733 60.9124L47.6135 78.2123C45.5501 80.2481 42.7797 81.4287 39.8671 81.5132C36.9545 81.5977 34.119 80.5799 31.9386 78.6672L31.4484 78.2123L13.992 60.986C7.33861 54.4327 3.53214 45.569 3.38251 36.281C3.23289 26.993 6.75192 18.0138 13.1909 11.2539L13.992 10.4411ZM19.7319 16.094C14.5955 21.1395 11.646 27.9656 11.5084 35.126C11.3709 42.2863 14.056 49.2184 18.995 54.4534L19.7319 55.206L37.0903 72.4591C37.6622 73.0301 38.4253 73.3745 39.2359 73.4274C40.0465 73.4804 40.8488 73.2383 41.4916 72.7467L41.8229 72.4557L59.357 55.206C64.5982 50.0066 67.5373 42.9599 67.5278 35.6162C67.5183 28.2725 64.5609 21.2333 59.3063 16.0472C54.0517 10.8611 46.9303 7.95281 39.5086 7.96222C32.087 7.97163 24.9731 10.8979 19.7319 16.0974V16.094Z" fill="#ED141F"/>
<path d="M28.3447 24.6629C29.8037 23.193 31.5424 22.0236 33.4605 21.222C35.3785 20.4204 37.438 20.0025 39.5201 19.9924C41.6022 19.9823 43.6657 20.3802 45.5916 21.1632C47.5175 21.9461 49.2677 23.0987 50.7412 24.5543C52.2148 26.0099 53.3824 27.7398 54.1769 29.6442C54.9714 31.5485 55.377 33.5897 55.3703 35.65C55.3635 37.7102 54.9446 39.7488 54.1377 41.648C53.3308 43.5473 52.1518 45.2697 50.6688 46.7158C47.7052 49.6059 43.7074 51.2201 39.5464 51.2068C35.3854 51.1935 31.3983 49.5537 28.4535 46.6448C25.5088 43.7358 23.845 39.7933 23.8246 35.676C23.8042 31.5587 25.4289 27.6002 28.3447 24.6629ZM39.5338 26.8605C38.3477 26.8345 37.1682 27.0429 36.0645 27.4733C34.9607 27.9038 33.9547 28.5477 33.1054 29.3673C32.2561 30.187 31.5805 31.1661 31.1181 32.2472C30.6557 33.3283 30.4158 34.4898 30.4124 35.6638C30.409 36.8377 30.6423 38.0006 31.0984 39.0843C31.5546 40.168 32.2246 41.1508 33.0692 41.9752C33.9138 42.7997 34.916 43.4492 36.0173 43.8859C37.1186 44.3225 38.2968 44.5375 39.4831 44.5182C41.85 44.5244 44.1224 43.6 45.8004 41.9484C47.4785 40.2967 48.4247 38.0531 48.431 35.7111C48.4373 33.3691 47.5031 31.1205 45.8339 29.4601C44.1647 27.7996 41.8973 26.8633 39.5304 26.8571L39.5338 26.8605ZM65.6271 70.8159C64.6468 72.5552 65.1877 74.7428 66.8677 75.8366C69.7749 77.4488 71.3704 79.1748 71.3704 80.4325C71.3704 84.9648 56.9564 90.4271 39.5 90.4271C22.0436 90.4271 7.62957 84.9648 7.62957 80.4325C7.62957 79.1748 9.22174 77.4488 12.0816 75.87C13.8123 74.7428 14.3532 72.5519 13.3729 70.8159C12.9002 69.9793 12.1253 69.3506 11.2036 69.0559C10.2819 68.7612 9.28169 68.8223 8.40368 69.2271C2.50488 72.4984 0 76.4086 0 80.4325C0 91.0693 17.9668 98 39.5 98C61.0332 98 79 91.0693 79 80.4325C79 76.4086 76.4985 72.4984 70.6538 69.2572L70.5997 69.2271C69.7213 68.8213 68.7203 68.7596 67.7978 69.0544C66.8754 69.3491 66.0998 69.9785 65.6271 70.8159Z" fill="#2C2C2C"/>
</svg>
