<svg width="102" height="85" viewBox="0 0 102 85" fill="none" xmlns="http://www.w3.org/2000/svg">
<path d="M67.8553 80.7584L67.8167 80.3649C67.8167 80.1586 67.832 79.9559 67.8599 79.7574C67.8531 79.5454 67.8441 79.3336 67.833 79.1218L67.8269 79.0044C67.8156 78.8016 67.8023 78.5989 67.7867 78.3964L67.7765 78.2703C67.7603 78.0644 67.742 77.8587 67.7217 77.6532L67.7212 77.6466M67.7765 78.2703C67.7603 78.0644 67.742 77.8587 67.7217 77.6532ZM67.65 77.0171L67.6368 76.9099C67.612 76.7139 67.5853 76.5183 67.5566 76.3229L67.5362 76.1845C67.5067 75.9866 67.475 75.7891 67.4412 75.5919L67.4387 75.5776L67.4325 75.5429C67.3995 75.3534 67.3644 75.1652 67.3279 74.9762L67.3039 74.8522C67.2661 74.6611 67.2265 74.4703 67.1851 74.2799L67.1545 74.1452C67.1122 73.9538 67.068 73.7628 67.022 73.5724L67.0046 73.505C66.9611 73.3283 66.9159 73.1521 66.869 72.9762L66.835 72.8485C66.7867 72.6697 66.7365 72.4913 66.6846 72.3135L66.6358 72.1486C66.5837 71.9731 66.53 71.798 66.4747 71.6234L66.434 71.4978C66.3856 71.3477 66.3359 71.1979 66.2851 71.0486L66.2307 70.8888C66.173 70.7228 66.1138 70.5574 66.0529 70.3926L65.9818 70.2001C65.928 70.0566 65.8731 69.9135 65.8171 69.7709L65.7307 69.5544C65.6799 69.4275 65.6282 69.3009 65.5757 69.1746L65.4985 68.9903C65.4333 68.8378 65.3669 68.6859 65.2993 68.5344L65.2083 68.3323C65.1442 68.1909 65.079 68.05 65.0127 67.9097L64.9141 67.705C64.858 67.5885 64.8011 67.4724 64.7433 67.3568L64.6468 67.1639C64.5744 67.0217 64.5009 66.8801 64.4262 66.7391L64.3063 66.5155C64.1934 66.3066 64.078 66.099 63.9602 65.8927L63.8103 65.6329C63.7595 65.5462 63.7087 65.4594 63.6569 65.3726C63.4137 64.9664 63.1611 64.5661 62.8993 64.1719L62.757 63.9606C62.6726 63.8358 62.5872 63.7118 62.5008 63.5884L62.3519 63.3761L62.171 63.1249L62.0084 62.905C61.9185 62.7838 61.8277 62.6633 61.736 62.5435L61.5958 62.3612C61.4912 62.227 61.3855 62.0936 61.2787 61.9611L61.1552 61.8079C61.0835 61.7211 61.0114 61.6333 60.9387 61.5465L60.8203 61.4062C60.7022 61.2666 60.5828 61.128 60.4621 60.9906L60.3437 60.8568C60.2164 60.7136 60.0877 60.5717 59.9575 60.4311L59.8517 60.3168C59.7726 60.2319 59.693 60.1475 59.6129 60.0636L59.5306 59.9783C59.3881 59.8303 59.2441 59.6838 59.0987 59.5388L58.9828 59.4245C58.8352 59.2786 58.686 59.1345 58.5351 58.992L58.4624 58.9236C58.3744 58.8409 58.2858 58.7587 58.1967 58.6771L58.1205 58.6077C57.9626 58.4637 57.803 58.3216 57.6418 58.1814L57.5422 58.0952C57.3797 57.9548 57.2158 57.8163 57.0503 57.6796L56.973 57.6153C56.877 57.5365 56.7804 57.4582 56.6834 57.3805C52.2507 53.8321 46.7829 51.5319 40.8084 51.0132C39.5102 51.1452 38.2038 51.1776 36.9006 51.1103L36.8808 51.1092H36.8727L36.861 51.1082L36.8406 51.1072H36.832L36.8209 51.1061L36.8006 51.1051L36.7919 51.1046L36.7807 51.1042L36.7604 51.1026H36.7513L36.7411 51.1016L36.7207 51.1006L36.7106 51.1001L36.7004 51.099L36.6806 51.098L36.6704 51.0975L36.6602 51.097L36.6404 51.0954L36.6303 51.0949L36.6207 51.0944L36.6003 51.0934L36.5902 51.0924L36.5805 51.0919L36.5607 51.0909L36.5495 51.0899L36.5408 51.0893L36.5205 51.0878L36.5093 51.0873L36.5007 51.0868L36.4804 51.0852L36.4687 51.0842H36.4606L36.4408 51.0827L36.4285 51.0817L36.4209 51.0812L36.4006 51.0797L36.3884 51.0786H36.3813L36.361 51.0771L36.3478 51.0761L36.3412 51.0755L36.3208 51.074L36.3081 51.073H36.3015L36.2812 51.0709L36.2675 51.0699H36.2613L36.2415 51.0679L36.2273 51.0669H36.2218L36.2014 51.0648L36.1872 51.0638L36.1821 51.0633L36.1618 51.0617L36.1471 51.0607L36.1419 51.0602L36.1221 51.0582L36.1069 51.0572H36.1024L36.082 51.0551L36.0667 51.0541L36.0627 51.0536L36.0424 51.0515L36.0272 51.0505H36.0225L36.0032 51.048L35.9865 51.0464H35.9829L35.9636 51.0444L35.9462 51.0429H35.9433L35.9234 51.0408L35.9067 51.0393H35.9036L35.8838 51.0372L35.8665 51.0357H35.864L35.8442 51.0337L35.8264 51.0322H35.8244L35.8045 51.0301L35.7863 51.0286H35.7847L35.7649 51.026L35.7467 51.0245H35.745L35.7252 51.0225L35.7064 51.0204L35.6856 51.0184L35.6664 51.0168L35.646 51.0143L35.6267 51.0128C20.4601 52.3314 8.55889 65.1132 8.55889 80.692V80.7074H8.47708L8.4822 80.7584C8.4822 81.8833 8.03738 82.9621 7.24558 83.7575C6.45378 84.5529 5.37988 84.9998 4.26011 84.9998C3.14034 84.9998 2.06643 84.5529 1.27464 83.7575C0.48284 82.9621 0.0380134 81.8833 0.0380134 80.7584L0 80.3649C0 80.0289 0.0390877 79.7022 0.112222 79.3899C0.119329 79.1612 0.128998 78.9334 0.139658 78.7058L0.155359 78.4347C0.163623 78.2933 0.170647 78.1514 0.180812 78.01C0.185935 77.9237 0.193538 77.8375 0.200149 77.7517C0.210313 77.6128 0.220478 77.4745 0.231634 77.3362L0.263119 76.9966C0.273284 76.8844 0.283448 76.7721 0.295183 76.6598C0.306835 76.5469 0.319561 76.4346 0.332287 76.3219L0.370879 75.9804L0.410049 75.6735C0.426246 75.5479 0.44203 75.4223 0.459797 75.2968C0.473515 75.1972 0.488307 75.0987 0.503017 74.9992C0.520288 74.8802 0.53756 74.7613 0.556401 74.6423C0.573672 74.5306 0.591935 74.4193 0.610777 74.3075C0.628957 74.1977 0.646807 74.0875 0.66664 73.9777C0.705289 73.7558 0.745948 73.5343 0.788614 73.3131L0.849104 73.0068C0.873483 72.8863 0.897861 72.7654 0.923231 72.6453C0.968539 72.431 1.01564 72.2171 1.06454 72.0036L1.13668 71.6959C1.16462 71.5795 1.19255 71.4626 1.22155 71.3467L1.29923 71.0384L1.38311 70.7178L1.47211 70.3911L1.55996 70.0766L1.65301 69.7555L1.74697 69.4411L1.84456 69.1236C1.87762 69.0194 1.91067 68.9148 1.94464 68.8106L2.04934 68.4906C2.11815 68.283 2.18895 68.0761 2.26172 67.8698L2.36749 67.5743L2.4879 67.2435L2.58748 66.9801L2.72523 66.6223L2.82175 66.3797C2.86952 66.2608 2.91679 66.1424 2.96554 66.0239L3.0743 65.7646C3.12305 65.6482 3.17139 65.5324 3.22164 65.4165L3.32378 65.1837C3.37716 65.0617 3.43055 64.9401 3.48542 64.8193L3.57483 64.6252C3.63681 64.4899 3.69879 64.3546 3.76283 64.2204L3.8406 64.0581C3.90534 63.9223 3.9709 63.7868 4.03727 63.6518C4.08049 63.5644 4.12471 63.4782 4.16842 63.3914C4.2228 63.2827 4.27668 63.1739 4.33254 63.0662L4.37113 62.9922C4.83755 62.092 5.33951 61.2109 5.8758 60.3509L5.9134 60.2897C5.99975 60.1523 6.08699 60.0155 6.17512 59.8792L6.26561 59.7383C6.35552 59.6 6.4465 59.4627 6.53798 59.3259L6.61318 59.2135C6.70703 59.0742 6.80187 58.9355 6.8977 58.7975L6.97704 58.6827C7.07157 58.5471 7.16727 58.4123 7.26412 58.2784L7.34742 58.1625C7.44093 58.0329 7.53547 57.9041 7.63103 57.7761L7.7316 57.6402C7.82515 57.5157 7.91861 57.3927 8.01364 57.2697L8.11942 57.1319C8.21678 57.0064 8.31501 56.8817 8.41411 56.7576L8.50964 56.6377C8.61345 56.5082 8.71813 56.3793 8.82366 56.2512L8.90961 56.1476C9.01484 56.0204 9.12117 55.8942 9.22859 55.7688L9.3242 55.6565C9.43204 55.5305 9.54096 55.4054 9.65095 55.2813L9.73631 55.1843C9.85039 55.0559 9.9654 54.9282 10.0813 54.8015L10.1602 54.7147C10.2759 54.5882 10.3926 54.4626 10.5102 54.3379L10.5946 54.2486C10.7151 54.122 10.836 53.9954 10.9584 53.8709L11.0255 53.802C11.1516 53.6728 11.2786 53.5446 11.4067 53.4176L11.4677 53.3573C11.6032 53.2239 11.7394 53.0912 11.8762 52.9591L11.8904 52.9458C14.7166 50.2356 17.9406 47.9778 21.4495 46.2514L21.4545 46.2494L21.4587 46.2474L21.4632 46.2448L21.4673 46.2427L21.4723 46.2407L21.4764 46.2387L21.481 46.2362L21.4855 46.2341L21.4897 46.232L21.4946 46.23L21.4987 46.2279L21.6054 46.1759L21.6106 46.1738L21.6147 46.1713L21.6192 46.1693L21.6415 46.1585L21.6461 46.1565L21.6502 46.1545L21.6553 46.1519L21.6594 46.1498L21.6639 46.1478L21.668 46.1458L21.673 46.1437L21.6772 46.1412L21.6817 46.1391L21.6863 46.137L21.6904 46.1351L21.6953 46.133L21.6995 46.1305L21.704 46.1284L21.7086 46.1263L21.7127 46.1243L21.7177 46.1218L21.7219 46.1197L21.7264 46.1177L21.731 46.1156L21.7351 46.1136C22.0065 45.9829 22.2792 45.8551 22.5532 45.7302C16.5929 41.0501 12.7609 33.7605 12.7609 25.5714C12.7614 11.4501 24.1584 0 38.2168 0C52.2761 0 63.6726 11.4501 63.6726 25.572C63.6726 30.7406 62.1456 35.5508 59.5209 39.5724L59.5062 39.5606C58.948 40.2935 58.1752 40.8322 57.2964 41.101C56.4176 41.3698 55.4771 41.3553 54.6069 41.0593C53.7368 40.7634 52.9809 40.201 52.4454 39.4512C51.91 38.7014 51.6218 37.8019 51.6216 36.8791C51.6216 34.975 53.018 33.8443 53.7193 32.199C54.6181 30.0864 55.0801 27.8123 55.0771 25.5148C55.0771 16.1199 47.4953 8.50462 38.1436 8.50462C28.7919 8.50462 21.2096 16.1198 21.2096 25.5148C21.2096 34.2829 27.8137 41.4994 36.297 42.424C36.4982 42.4142 36.6994 42.406 36.9011 42.3995V42.4162C37.3153 42.403 37.7315 42.3959 38.1497 42.3959C46.1852 42.3959 53.641 44.8916 59.7934 49.1516V49.148C60.1347 49.3857 60.4721 49.6288 60.8056 49.8774L60.9139 49.9576L61.0861 50.0867C61.2182 50.1868 61.3493 50.2894 61.4805 50.391L61.516 50.419C61.5994 50.4834 61.6812 50.5493 61.7635 50.6146L61.9327 50.7493C62.0181 50.8182 62.103 50.8871 62.1878 50.9571L62.3479 51.0883L62.5852 51.2859L62.7626 51.436L63.0014 51.6412L63.162 51.7811L63.4023 51.9934L63.5609 52.1354L63.8058 52.3578L63.9496 52.4901L64.1884 52.7131L64.3633 52.8791L64.5666 53.0731L64.7546 53.2574L64.9527 53.4523L65.1306 53.631L65.3334 53.8362L65.4681 53.9756C65.5519 54.0624 65.6357 54.1491 65.719 54.237L65.748 54.2676C66.314 54.8656 66.8607 55.4817 67.3873 56.115L67.463 56.2053L67.676 56.4657L67.8112 56.6326L68.0016 56.8725L68.1415 57.0502L68.3335 57.2993L68.4672 57.4729L68.6714 57.746L68.7797 57.892C68.8468 57.9828 68.9128 58.0737 68.9788 58.1651L69.1064 58.3428L69.2823 58.5903L69.4159 58.7818L69.5958 59.0431L69.7101 59.2121L69.8956 59.4898L70.0074 59.6603C70.0684 59.7532 70.1293 59.8466 70.1888 59.9401L70.3037 60.1207L70.4698 60.3841L70.5984 60.5934L70.7534 60.8472L70.8708 61.0448C70.9236 61.1336 70.9769 61.2224 71.0293 61.3116L71.1244 61.4781C71.359 61.8845 71.5864 62.2952 71.8063 62.7099L71.8068 62.7114C71.8576 62.8064 71.9064 62.9018 71.9557 62.9973L72.0574 63.1938C72.1082 63.2924 72.1574 63.3919 72.2073 63.4915L72.2982 63.6737L72.4339 63.9534L72.5386 64.1709L72.6651 64.4409L72.7667 64.6605L72.8897 64.9325L72.9913 65.1591L73.1082 65.4287L73.2073 65.66L73.3201 65.9305L73.4187 66.1694L73.5264 66.4374L73.6159 66.6646L73.7271 66.952L73.812 67.1781L73.9188 67.465L74.0031 67.6998L74.0976 67.9663L74.1957 68.2532L74.2745 68.4845L74.3659 68.7662C74.3929 68.8489 74.4203 68.9311 74.4462 69.0143C74.4772 69.1123 74.5072 69.2113 74.5377 69.3104L74.6083 69.5381C74.6357 69.6289 74.6622 69.7208 74.6886 69.8122L74.7674 70.0807L74.7684 70.0853C74.8171 70.2568 74.8649 70.4283 74.9117 70.6008L74.9122 70.6029C74.9586 70.7762 75.004 70.9497 75.0484 71.1236L75.0504 71.1302L75.1149 71.3926L75.184 71.6734L75.2491 71.9541L75.3081 72.2099L75.3676 72.4845C75.3878 72.5775 75.4082 72.6714 75.4275 72.7648L75.4819 73.0343C75.5001 73.1262 75.519 73.2181 75.5362 73.3099L75.5865 73.5754L75.6404 73.8715L75.6851 74.1293L75.7334 74.4213L75.7756 74.6862L75.8208 74.9859L75.8584 75.2453L75.8975 75.5352L75.9341 75.818L75.9676 76.0967L75.9997 76.3734L76.0302 76.67L76.0581 76.9467L76.0835 77.2285L76.1074 77.5123L76.1303 77.812L76.1491 78.0799C76.1562 78.1871 76.1623 78.2943 76.1683 78.4016L76.1826 78.6537C76.1897 78.7931 76.1953 78.933 76.2009 79.0723L76.207 79.2188C76.2141 79.4128 76.2197 79.6083 76.2238 79.8033C76.2482 79.9871 76.2608 80.1743 76.2608 80.3649L76.2995 80.7589C76.2995 83.1015 74.4091 85 72.0772 85C71.5228 85 70.9738 84.8903 70.4615 84.6772C69.9493 84.4641 69.4839 84.1517 69.0919 83.7579C68.6998 83.364 68.3888 82.8965 68.1767 82.3819C67.9645 81.8674 67.8553 81.3154 67.8553 80.7584M67.5362 76.1845C67.5067 75.9866 67.475 75.7891 67.4412 75.5919ZM67.1545 74.1452C67.1122 73.9538 67.068 73.7628 67.022 73.5724Z" fill="#333333"/>
<path d="M72.1247 40.3268L72.2239 40.2273C77.3329 37.2987 80.7782 31.7764 80.7782 25.4439C80.7782 18.4268 76.5483 12.4026 70.5108 9.80272C68.9975 9.15031 67.4959 8.62972 65.8347 8.62972C64.7709 8.62987 63.7505 8.20554 62.998 7.45003C62.2456 6.69453 61.8226 5.66973 61.8223 4.60101L61.7856 4.22678C61.7855 3.18734 62.1851 2.18803 62.9009 1.43751C63.6168 0.686995 64.5936 0.243297 65.6274 0.199069L65.8256 0C78.9936 0.980073 89.3738 12.0233 89.3738 25.5005C89.3738 33.5548 85.6668 40.7383 79.8743 45.4255C79.8858 45.569 79.892 45.7139 79.8935 45.8605C92.6769 51.8295 101.61 64.7135 101.925 79.7318C101.95 79.918 101.962 80.1055 101.962 80.2933L102 80.6875C102 83.0306 100.11 84.9285 97.7783 84.9285C97.2239 84.9285 96.6749 84.8189 96.1627 84.6057C95.6505 84.3926 95.1851 84.0802 94.793 83.6864C94.401 83.2926 94.09 82.825 93.8778 82.3105C93.6657 81.7959 93.5565 81.2444 93.5565 80.6875L93.5179 80.2939C93.5179 80.0851 93.5332 79.8804 93.5621 79.6803C93.2348 69.0863 87.4017 59.8874 78.8432 54.8709C78.1158 54.4447 77.3706 54.0498 76.6098 53.6872C74.762 52.5835 73.1645 52.6039 71.4097 51.7004C70.4475 51.2061 69.6398 50.4544 69.0759 49.5282C68.512 48.602 68.2137 47.5373 68.214 46.4516L68.1601 45.9044C68.1601 43.3178 69.8181 41.1206 72.1247 40.3268Z" fill="#ED141F"/>
</svg>
