<svg width="88" height="88" viewBox="0 0 88 88" fill="none" xmlns="http://www.w3.org/2000/svg">
<g clip-path="url(#clip0_65_1074)">
<path d="M66.9646 88C65.1763 88 63.2906 87.8334 61.3138 87.494C61.0013 87.4503 60.7008 87.3443 60.4301 87.1823C60.1594 87.0204 59.9239 86.8057 59.7377 86.5511C59.5514 86.2964 59.4182 86.007 59.3459 85.6999C59.2736 85.3928 59.2636 85.0744 59.3167 84.7634C59.3697 84.4524 59.4846 84.1552 59.6546 83.8894C59.8246 83.6237 60.0462 83.3947 60.3063 83.2162C60.5664 83.0377 60.8597 82.9132 61.1688 82.8501C61.4779 82.7869 61.7965 82.7865 62.1058 82.8488C66.8169 83.6471 73.3069 83.732 77.4806 79.5614L83.0466 73.9923C83.1219 73.9198 83.1818 73.8329 83.2227 73.7368C83.2636 73.6407 83.2847 73.5373 83.2847 73.4328C83.2847 73.3284 83.2636 73.225 83.2227 73.1288C83.1818 73.0327 83.1219 72.9458 83.0466 72.8734L67.458 57.2817C67.3078 57.1356 67.1066 57.0538 66.897 57.0538C66.6875 57.0538 66.4862 57.1356 66.336 57.2817L64.114 59.5068C60.0975 63.5297 52.6458 63.0677 44.6723 58.3125C41.6149 56.4666 38.7975 54.2498 36.284 51.7125C26.296 41.7245 22.8735 29.4988 28.4898 23.8825L30.718 21.6543C31.0323 21.34 31.0323 20.8465 30.718 20.5323L15.1295 4.94368C14.9793 4.79758 14.778 4.71584 14.5685 4.71584C14.3589 4.71584 14.1577 4.79758 14.0075 4.94368L8.43833 10.5097C4.18919 14.762 3.5449 22.2923 6.62176 31.7114C9.87461 41.668 16.8486 52.3348 26.2552 61.7445C34.216 69.7054 43.0129 75.8937 51.6997 79.6431C52.2736 79.8911 52.7255 80.3569 52.956 80.938C53.1864 81.5192 53.1766 82.1681 52.9286 82.742C52.6806 83.3159 52.2148 83.7677 51.6337 83.9982C51.0525 84.2286 50.4037 84.2188 49.8298 83.9708C40.6023 79.9888 31.2963 73.458 22.9206 65.0791C12.9986 55.1571 5.61919 43.8271 2.14004 33.1791C-1.51824 21.9843 -0.462243 12.7505 5.1069 7.1814L10.6729 1.61226C11.7068 0.581646 13.1071 0.00292969 14.5669 0.00292969C16.0267 0.00292969 17.427 0.581646 18.4609 1.61226L34.0495 17.204C35.0801 18.2379 35.6588 19.6381 35.6588 21.098C35.6588 22.5578 35.0801 23.9581 34.0495 24.992L31.8212 27.2171C28.6595 30.3788 31.0858 39.8483 39.6155 48.3811C41.8523 50.6442 44.3617 52.6204 47.086 54.2645C52.938 57.7531 58.4412 58.52 60.7795 56.1754L63.0078 53.9503C64.0407 52.9191 65.4406 52.3399 66.9002 52.3399C68.3597 52.3399 69.7597 52.9191 70.7926 53.9503L86.3812 69.542C87.4278 70.5885 88.006 71.9777 87.9998 73.4517C87.9986 74.1724 87.8551 74.8858 87.5773 75.5508C87.2995 76.2159 86.893 76.8194 86.3812 77.3268L80.8152 82.896C77.4366 86.2714 72.7098 88 66.9646 88ZM63.6803 39.6031C63.3708 39.6031 63.0643 39.5421 62.7783 39.4237C62.4923 39.3052 62.2325 39.1316 62.0136 38.9127C61.7947 38.6938 61.6211 38.434 61.5026 38.148C61.3842 37.862 61.3232 37.5555 61.3232 37.246C61.3199 34.3218 60.157 31.5183 58.0896 29.4504C56.0222 27.3824 53.219 26.2187 50.2949 26.2145C49.6697 26.2145 49.0702 25.9662 48.6281 25.5242C48.1861 25.0821 47.9378 24.4826 47.9378 23.8574C47.9378 23.2322 48.1861 22.6327 48.6281 22.1906C49.0702 21.7486 49.6697 21.5003 50.2949 21.5003C54.4686 21.5052 58.4698 23.1654 61.4211 26.1167C64.3723 29.0679 66.0325 33.0692 66.0375 37.2428C66.0379 37.5526 65.9772 37.8595 65.8589 38.1458C65.7407 38.4322 65.5671 38.6924 65.3482 38.9116C65.1293 39.1308 64.8693 39.3047 64.5831 39.4234C64.2969 39.542 63.9901 39.6031 63.6803 39.6031Z" fill="black" stroke="black"/>
<path d="M73.1282 39.603C72.503 39.603 71.9035 39.3547 71.4615 38.9126C71.0194 38.4706 70.7711 37.871 70.7711 37.2459C70.7652 31.8163 68.6058 26.6108 64.7665 22.7716C60.9272 18.9323 55.7217 16.7728 50.2922 16.767C49.667 16.767 49.0675 16.5187 48.6254 16.0766C48.1834 15.6346 47.9351 15.035 47.9351 14.4099C47.9351 13.7847 48.1834 13.1852 48.6254 12.7431C49.0675 12.3011 49.667 12.0527 50.2922 12.0527C64.1836 12.0527 75.4822 23.3544 75.4822 37.2459C75.4826 37.5553 75.422 37.8617 75.3039 38.1477C75.1858 38.4336 75.0125 38.6935 74.7938 38.9124C74.5752 39.1314 74.3156 39.305 74.0298 39.4235C73.744 39.542 73.4376 39.603 73.1282 39.603Z" fill="#ED141F" stroke="#ED141F"/>
</g>
<defs>
<clipPath id="clip0_65_1074">
<rect width="88" height="88" fill="white"/>
</clipPath>
</defs>
</svg>
